<svg width="277" height="54" viewBox="0 0 277 54" fill="none" xmlns="http://www.w3.org/2000/svg">
<g filter="url(#filter0_d_469_49)">
<path d="M66.5781 31.3008H61.4922L62.5703 28.2188H65.3828L61.2227 17.4492H66.2734L72.4727 33H67.2344L66.5781 31.3008ZM60.1094 33H55.1055L60.6602 18.1523L62.957 24.3281L60.1094 33ZM73.9492 33V17.4492H79.1289V33H73.9492ZM79.9492 20.5547V17.4492H85.8672L88.9844 20.5547V25.2188L86.5938 27.6094L86.4297 27.2812L81.5664 27.9258L81.7539 28.3359H79.9492V25.3242H83.8398V20.5547H79.9492ZM89.5117 33H83.9805L81.7539 28.3359H85.8672L86.5938 27.6094L89.5117 33Z" fill="#C53242"/>
<path d="M103.574 33V29.8945H107.418V20.5547H103.574V17.4492H109.492L112.609 20.5547V29.8945L109.492 33H103.574ZM97.5742 17.4492H102.754V33H97.5742V17.4492ZM119.91 33H117.836L114.73 29.8945V23.6602L117.836 20.5547H119.91V33ZM120.73 28.0078V25.8398H123.461V23.6602H120.73V20.5547H125.125L128.23 23.6602V28.0078H120.73ZM120.73 33V30.0938H127.691V31.4414L126.145 33H120.73ZM133.152 20.5547H135.227V24.9492H141.133L143.828 27.668V30.0938L140.934 33H138.648V28.3008H133.047L130.352 25.7109V23.3438L133.152 20.5547ZM135.531 30.7148H137.828V33L132.496 32.9883L130.34 30.4336V29.4375H135.531V30.7148ZM138.648 22.8398H136.047V20.5547H141.555L143.406 22.4062V23.8125H138.648V22.8398ZM145.879 20.5547H151.07V33H145.879V20.5547ZM145.879 15.7031H151.07V19.0078H145.879V15.7031ZM161.723 23.6602H159.426V20.5547H163.797L166.902 23.6602V34.2305L163.797 37.3594H156.965L155.406 35.7891V34.6406H161.723V23.6602ZM160.902 30.0938V31.4648L159.355 33H156.531L153.426 29.8945V23.6602L156.531 20.5547H158.605V30.0938H160.902ZM169.234 33V20.5547H174.461V33H169.234ZM177.531 23.6602H175.305V22.3008L177.039 20.5547H179.922L182.723 23.3555V33H177.531V23.6602ZM201.098 33V27.1758H194.371L191.254 24.0586V20.5547L194.371 17.4492H196.129V22.9688H203.277L206.289 26.0859V29.8945L203.184 33H201.098ZM196.949 20.25V17.4492H203.172L205.867 20.1562V21.8086H201.098V20.25H196.949ZM191.254 28.3359H196.434V30.1875H200.277V33H193.867L191.254 29.8945V28.3359ZM213.977 29.8945H217.398V33H211.914L208.797 29.8945V23.6602H207.766V20.5547H208.797V19.207L213.977 17.4492V29.8945ZM214.797 23.6602V20.5547H217.586V23.6602H214.797ZM232.773 20.5547V33H227.594V20.5547H232.773ZM224.465 29.8945H226.773V31.4414L225.273 33H222.402L219.285 29.8945V20.5547H224.465V29.8945ZM248.781 15.8086V33H243.602V15.8086H248.781ZM240.285 30.0938H242.781V31.7695L241.551 33H237.906L235.105 30.1992V23.3555L237.906 20.5547H242.781V23.6602H240.285V30.0938ZM251.23 20.5547H256.422V33H251.23V20.5547ZM251.23 15.7031H256.422V19.0078H251.23V15.7031ZM272.758 29.8945L269.652 33H266.184V30.0938H267.473V23.6602H266.184V20.5547H269.652L272.758 23.6602V29.8945ZM264.016 30.0938H265.363V33H261.883L258.777 29.8945V23.6602L261.883 20.5547H265.363V23.6602H264.016V30.0938Z" fill="#19345F"/>
</g>
<g filter="url(#filter1_d_469_49)">
<path d="M12.0076 17.777L4 25.6995L23.5741 48L43 25.6995L35.1407 17.777H12.0076Z" fill="white"/>
<mask id="path-3-inside-1_469_49" fill="white">
<path fill-rule="evenodd" clip-rule="evenodd" d="M34.4697 18.0111V17.9938H12.716V18.0111L5.60374 25.0078L4.80273 25.7763L22.697 46.3972L22.6932 46.4015L23.5298 47.3623L42.4744 25.8765L41.615 25.0076L41.5995 25.0251L34.4697 18.0111ZM40.7815 25.95L33.931 19.2108L13.2547 19.2108L6.51203 25.8439L23.5217 45.4647L40.7815 25.95Z"/>
</mask>
<path fill-rule="evenodd" clip-rule="evenodd" d="M34.4697 18.0111V17.9938H12.716V18.0111L5.60374 25.0078L4.80273 25.7763L22.697 46.3972L22.6932 46.4015L23.5298 47.3623L42.4744 25.8765L41.615 25.0076L41.5995 25.0251L34.4697 18.0111ZM40.7815 25.95L33.931 19.2108L13.2547 19.2108L6.51203 25.8439L23.5217 45.4647L40.7815 25.95Z" fill="#19345F"/>
<path d="M34.4697 17.9938H35.4697V16.9938H34.4697V17.9938ZM34.4697 18.0111H33.4697V18.4301L33.7684 18.724L34.4697 18.0111ZM12.716 17.9938V16.9938H11.716V17.9938H12.716ZM12.716 18.0111L13.4173 18.724L13.716 18.4301V18.0111H12.716ZM5.60374 25.0078L6.29609 25.7295L6.30504 25.7207L5.60374 25.0078ZM4.80273 25.7763L4.11044 25.0547L3.42399 25.7132L4.04746 26.4317L4.80273 25.7763ZM22.697 46.3972L23.4461 47.0597L24.0264 46.4034L23.4522 45.7418L22.697 46.3972ZM22.6932 46.4015L21.9441 45.739L21.3627 46.3964L21.939 47.0582L22.6932 46.4015ZM23.5298 47.3623L22.7757 48.019L23.5252 48.8797L24.2799 48.0237L23.5298 47.3623ZM42.4744 25.8765L43.2244 26.5379L43.8421 25.8373L43.1854 25.1733L42.4744 25.8765ZM41.615 25.0076L42.326 24.3044L41.5743 23.5443L40.866 24.345L41.615 25.0076ZM41.5995 25.0251L40.8982 25.738L41.6499 26.4775L42.3485 25.6877L41.5995 25.0251ZM40.7815 25.95L41.5305 26.6125L42.1588 25.9022L41.4828 25.2371L40.7815 25.95ZM33.931 19.2108L34.6323 18.4979L34.3404 18.2108L33.931 18.2108L33.931 19.2108ZM13.2547 19.2108L13.2547 18.2108L12.8453 18.2108L12.5534 18.4979L13.2547 19.2108ZM6.51203 25.8439L5.81074 25.1311L5.1414 25.7895L5.75644 26.499L6.51203 25.8439ZM23.5217 45.4647L22.7661 46.1197L23.5142 46.9826L24.2708 46.1272L23.5217 45.4647ZM33.4697 17.9938V18.0111H35.4697V17.9938H33.4697ZM12.716 18.9938H34.4697V16.9938H12.716V18.9938ZM13.716 18.0111V17.9938H11.716V18.0111H13.716ZM6.30504 25.7207L13.4173 18.724L12.0147 17.2982L4.90245 24.295L6.30504 25.7207ZM5.49503 26.4979L6.29604 25.7295L4.91145 24.2862L4.11044 25.0547L5.49503 26.4979ZM23.4522 45.7418L5.55801 25.1209L4.04746 26.4317L21.9417 47.0526L23.4522 45.7418ZM21.9479 45.7347L21.9441 45.739L23.4422 47.064L23.4461 47.0597L21.9479 45.7347ZM21.939 47.0582L22.7757 48.019L24.284 46.7056L23.4473 45.7448L21.939 47.0582ZM24.2799 48.0237L43.2244 26.5379L41.7243 25.2151L22.7798 46.701L24.2799 48.0237ZM43.1854 25.1733L42.326 24.3044L40.904 25.7108L41.7633 26.5797L43.1854 25.1733ZM40.866 24.345L40.8505 24.3626L42.3485 25.6877L42.364 25.6701L40.866 24.345ZM33.7684 18.724L40.8982 25.738L42.3008 24.3122L35.171 17.2982L33.7684 18.724ZM41.4828 25.2371L34.6323 18.4979L33.2297 19.9237L40.0802 26.6629L41.4828 25.2371ZM33.931 18.2108L13.2547 18.2108L13.2547 20.2108L33.931 20.2108L33.931 18.2108ZM12.5534 18.4979L5.81074 25.1311L7.21332 26.5568L13.956 19.9237L12.5534 18.4979ZM5.75644 26.499L22.7661 46.1197L24.2773 44.8097L7.26762 25.1889L5.75644 26.499ZM40.0324 25.2875L22.7726 44.8022L24.2708 46.1272L41.5305 26.6125L40.0324 25.2875Z" fill="#19345F" mask="url(#path-3-inside-1_469_49)"/>
<mask id="path-5-outside-2_469_49" maskUnits="userSpaceOnUse" x="6.17969" y="2" width="35" height="16" fill="black">
<rect fill="white" x="6.17969" y="2" width="35" height="16"/>
<path fill-rule="evenodd" clip-rule="evenodd" d="M23.8666 5.68359C24.4236 5.49179 24.8218 4.98163 24.8218 4.38242C24.8218 3.61893 24.1753 3 23.3777 3C22.5802 3 21.9336 3.61893 21.9336 4.38242C21.9336 5.03859 22.4112 5.58798 23.0517 5.72946C22.6887 7.83519 21.8673 10.7314 20.1486 11.0842C18.3086 11.462 16.6387 10.8824 15.1632 8.23528C15.5 7.9822 15.7164 7.5889 15.7164 7.14722C15.7164 6.38373 15.0698 5.76481 14.2723 5.76481C13.4747 5.76481 12.8281 6.38373 12.8281 7.14722C12.8281 7.91071 13.4747 8.52964 14.2723 8.52964C14.3219 8.52964 14.3709 8.52724 14.4193 8.52256C14.6144 9.97626 14.4878 11.7522 13.2202 12.5267C12.7573 12.7707 11.4541 12.7213 9.67791 10.857C9.91982 10.6098 10.0679 10.2775 10.0679 9.91203C10.0679 9.14854 9.42138 8.52961 8.62381 8.52961C7.82624 8.52961 7.17969 9.14854 7.17969 9.91203C7.17969 10.6755 7.82624 11.2944 8.62381 11.2944C8.82964 11.2944 9.0254 11.2532 9.2026 11.1789C10.4083 12.574 12.0557 14.6502 12.8352 16.2232H34.4867C35.0069 15.1715 36.3356 12.9069 37.9583 11.1897C38.1284 11.2572 38.3149 11.2944 38.5105 11.2944C39.3081 11.2944 39.9547 10.6755 39.9547 9.91203C39.9547 9.14854 39.3081 8.52961 38.5105 8.52961C37.713 8.52961 37.0664 9.14854 37.0664 9.91203C37.0664 10.2662 37.2056 10.5893 37.4344 10.8339C36.6596 11.5688 35.7418 12.324 35.2565 12.5267C34.5508 12.8215 31.9848 13.1578 32.5621 9.91217C32.5182 9.91217 32.6808 9.26726 32.8822 8.52905C32.8963 8.52943 32.9104 8.52964 32.9246 8.52964C33.7222 8.52964 34.3687 7.91071 34.3687 7.14722C34.3687 6.38373 33.7222 5.76481 32.9246 5.76481C32.127 5.76481 31.4805 6.38373 31.4805 7.14722C31.4805 7.52974 31.6428 7.87596 31.905 8.12625C31.0188 9.52514 29.8037 11.1145 27.9945 11.1978C27.9611 11.1978 27.9264 11.1984 27.8905 11.1991C27.1586 11.2129 25.9051 11.2365 23.9015 5.94524L23.8666 5.68359Z"/>
</mask>
<path fill-rule="evenodd" clip-rule="evenodd" d="M23.8666 5.68359C24.4236 5.49179 24.8218 4.98163 24.8218 4.38242C24.8218 3.61893 24.1753 3 23.3777 3C22.5802 3 21.9336 3.61893 21.9336 4.38242C21.9336 5.03859 22.4112 5.58798 23.0517 5.72946C22.6887 7.83519 21.8673 10.7314 20.1486 11.0842C18.3086 11.462 16.6387 10.8824 15.1632 8.23528C15.5 7.9822 15.7164 7.5889 15.7164 7.14722C15.7164 6.38373 15.0698 5.76481 14.2723 5.76481C13.4747 5.76481 12.8281 6.38373 12.8281 7.14722C12.8281 7.91071 13.4747 8.52964 14.2723 8.52964C14.3219 8.52964 14.3709 8.52724 14.4193 8.52256C14.6144 9.97626 14.4878 11.7522 13.2202 12.5267C12.7573 12.7707 11.4541 12.7213 9.67791 10.857C9.91982 10.6098 10.0679 10.2775 10.0679 9.91203C10.0679 9.14854 9.42138 8.52961 8.62381 8.52961C7.82624 8.52961 7.17969 9.14854 7.17969 9.91203C7.17969 10.6755 7.82624 11.2944 8.62381 11.2944C8.82964 11.2944 9.0254 11.2532 9.2026 11.1789C10.4083 12.574 12.0557 14.6502 12.8352 16.2232H34.4867C35.0069 15.1715 36.3356 12.9069 37.9583 11.1897C38.1284 11.2572 38.3149 11.2944 38.5105 11.2944C39.3081 11.2944 39.9547 10.6755 39.9547 9.91203C39.9547 9.14854 39.3081 8.52961 38.5105 8.52961C37.713 8.52961 37.0664 9.14854 37.0664 9.91203C37.0664 10.2662 37.2056 10.5893 37.4344 10.8339C36.6596 11.5688 35.7418 12.324 35.2565 12.5267C34.5508 12.8215 31.9848 13.1578 32.5621 9.91217C32.5182 9.91217 32.6808 9.26726 32.8822 8.52905C32.8963 8.52943 32.9104 8.52964 32.9246 8.52964C33.7222 8.52964 34.3687 7.91071 34.3687 7.14722C34.3687 6.38373 33.7222 5.76481 32.9246 5.76481C32.127 5.76481 31.4805 6.38373 31.4805 7.14722C31.4805 7.52974 31.6428 7.87596 31.905 8.12625C31.0188 9.52514 29.8037 11.1145 27.9945 11.1978C27.9611 11.1978 27.9264 11.1984 27.8905 11.1991C27.1586 11.2129 25.9051 11.2365 23.9015 5.94524L23.8666 5.68359Z" fill="#19345F"/>
<path d="M23.8666 5.68359L23.541 4.73809L22.7672 5.00458L22.8754 5.81584L23.8666 5.68359ZM23.0517 5.72946L24.0372 5.89934L24.1993 4.95883L23.2674 4.753L23.0517 5.72946ZM20.1486 11.0842L19.9475 10.1046L19.9475 10.1046L20.1486 11.0842ZM15.1632 8.23528L14.5625 7.43581L13.8649 7.95998L14.2897 8.72215L15.1632 8.23528ZM14.4193 8.52256L15.4104 8.3895L15.2822 7.43437L14.3229 7.52721L14.4193 8.52256ZM13.2202 12.5267L13.6864 13.4114L13.7145 13.3966L13.7416 13.3801L13.2202 12.5267ZM9.67791 10.857L8.96322 10.1575L8.28783 10.8476L8.95391 11.5467L9.67791 10.857ZM9.2026 11.1789L9.95917 10.525L9.48488 9.97627L8.81596 10.2567L9.2026 11.1789ZM12.8352 16.2232L11.9392 16.6672L12.2147 17.2232H12.8352V16.2232ZM34.4867 16.2232V17.2232H35.1077L35.383 16.6666L34.4867 16.2232ZM37.9583 11.1897L38.3269 10.2602L37.6969 10.0104L37.2314 10.5029L37.9583 11.1897ZM37.4344 10.8339L38.1226 11.5594L38.8431 10.876L38.1647 10.1508L37.4344 10.8339ZM35.2565 12.5267L34.8711 11.604L34.8711 11.604L35.2565 12.5267ZM32.5621 9.91217L33.5467 10.0873L33.7557 8.91217H32.5621V9.91217ZM32.8822 8.52905L32.9098 7.52943L32.1243 7.50775L31.9175 8.26584L32.8822 8.52905ZM31.905 8.12625L32.7498 8.66142L33.1885 7.96884L32.5954 7.40281L31.905 8.12625ZM27.9945 11.1978V12.1978H28.0175L28.0405 12.1967L27.9945 11.1978ZM27.8905 11.1991L27.9093 12.1989L27.9093 12.1989L27.8905 11.1991ZM23.9015 5.94524L22.9103 6.07749L22.9256 6.19165L22.9663 6.29936L23.9015 5.94524ZM23.8218 4.38242C23.8218 4.51914 23.7293 4.67326 23.541 4.73809L24.1922 6.6291C25.1179 6.31032 25.8218 5.44412 25.8218 4.38242H23.8218ZM23.3777 4C23.6646 4 23.8218 4.21192 23.8218 4.38242H25.8218C25.8218 3.02594 24.686 2 23.3777 2V4ZM22.9336 4.38242C22.9336 4.21192 23.0908 4 23.3777 4V2C22.0695 2 20.9336 3.02594 20.9336 4.38242H22.9336ZM23.2674 4.753C23.0464 4.70418 22.9336 4.531 22.9336 4.38242H20.9336C20.9336 5.54618 21.7759 6.47178 22.8361 6.70593L23.2674 4.753ZM20.3497 12.0638C21.7147 11.7836 22.5316 10.5575 23.02 9.4756C23.5364 8.33163 23.85 6.9855 24.0372 5.89934L22.0663 5.55959C21.8905 6.57915 21.6119 7.73398 21.1971 8.65274C20.7544 9.63353 20.3012 10.032 19.9475 10.1046L20.3497 12.0638ZM14.2897 8.72215C15.0861 10.151 15.9968 11.1347 17.0613 11.6831C18.1433 12.2405 19.2644 12.2866 20.3497 12.0638L19.9475 10.1046C19.1929 10.2596 18.559 10.2048 17.9772 9.90511C17.3778 9.59635 16.7157 8.96675 16.0367 7.74841L14.2897 8.72215ZM14.7164 7.14722C14.7164 7.25109 14.6672 7.35713 14.5625 7.43581L15.7639 9.03475C16.3328 8.60726 16.7164 7.92671 16.7164 7.14722H14.7164ZM14.2723 6.76481C14.5591 6.76481 14.7164 6.97673 14.7164 7.14722H16.7164C16.7164 5.79074 15.5805 4.76481 14.2723 4.76481V6.76481ZM13.8281 7.14722C13.8281 6.97673 13.9854 6.76481 14.2723 6.76481V4.76481C12.964 4.76481 11.8281 5.79074 11.8281 7.14722H13.8281ZM14.2723 7.52964C13.9854 7.52964 13.8281 7.31772 13.8281 7.14722H11.8281C11.8281 8.5037 12.964 9.52964 14.2723 9.52964V7.52964ZM14.3229 7.52721C14.3065 7.5288 14.2896 7.52964 14.2723 7.52964V9.52964C14.3541 9.52964 14.4353 9.52568 14.5156 9.51791L14.3229 7.52721ZM13.7416 13.3801C14.6775 12.8082 15.1391 11.8916 15.343 11.0029C15.5451 10.1217 15.517 9.18379 15.4104 8.3895L13.4282 8.65562C13.5167 9.31504 13.5229 9.99189 13.3936 10.5558C13.266 11.1121 13.0305 11.4707 12.6988 11.6734L13.7416 13.3801ZM8.95391 11.5467C9.91892 12.5596 10.816 13.1442 11.6071 13.4249C12.3732 13.6967 13.1255 13.707 13.6864 13.4114L12.7539 11.6421C12.8519 11.5904 12.7212 11.698 12.2759 11.54C11.8557 11.3909 11.2131 11.0186 10.4019 10.1672L8.95391 11.5467ZM9.06794 9.91203C9.06794 9.99971 9.03393 10.0853 8.96322 10.1575L10.3926 11.5564C10.8057 11.1343 11.0679 10.5552 11.0679 9.91203H9.06794ZM8.62381 9.52961C8.9107 9.52961 9.06794 9.74153 9.06794 9.91203H11.0679C11.0679 8.55555 9.93206 7.52961 8.62381 7.52961V9.52961ZM8.17969 9.91203C8.17969 9.74153 8.33692 9.52961 8.62381 9.52961V7.52961C7.31557 7.52961 6.17969 8.55555 6.17969 9.91203H8.17969ZM8.62381 10.2944C8.33692 10.2944 8.17969 10.0825 8.17969 9.91203H6.17969C6.17969 11.2685 7.31557 12.2944 8.62381 12.2944V10.2944ZM8.81596 10.2567C8.75975 10.2803 8.6953 10.2944 8.62381 10.2944V12.2944C8.96397 12.2944 9.29106 12.2262 9.58923 12.1012L8.81596 10.2567ZM13.7313 15.7792C12.8898 14.0811 11.1655 11.9207 9.95917 10.525L8.44602 11.8328C9.65122 13.2273 11.2217 15.2193 11.9392 16.6672L13.7313 15.7792ZM34.4867 15.2232H12.8352V17.2232H34.4867V15.2232ZM37.2314 10.5029C35.5182 12.316 34.1374 14.6738 33.5904 15.7798L35.383 16.6666C35.8763 15.6693 37.153 13.4979 38.6851 11.8766L37.2314 10.5029ZM38.5105 10.2944C38.4425 10.2944 38.381 10.2816 38.3269 10.2602L37.5896 12.1193C37.8758 12.2328 38.1873 12.2944 38.5105 12.2944V10.2944ZM38.9547 9.91203C38.9547 10.0825 38.7974 10.2944 38.5105 10.2944V12.2944C39.8188 12.2944 40.9547 11.2685 40.9547 9.91203H38.9547ZM38.5105 9.52961C38.7974 9.52961 38.9547 9.74153 38.9547 9.91203H40.9547C40.9547 8.55555 39.8188 7.52961 38.5105 7.52961V9.52961ZM38.0664 9.91203C38.0664 9.74153 38.2236 9.52961 38.5105 9.52961V7.52961C37.2023 7.52961 36.0664 8.55555 36.0664 9.91203H38.0664ZM38.1647 10.1508C38.0984 10.08 38.0664 9.99728 38.0664 9.91203H36.0664C36.0664 10.5352 36.3127 11.0986 36.7041 11.517L38.1647 10.1508ZM35.642 13.4495C36.0235 13.2901 36.4683 12.9718 36.8572 12.6643C37.2725 12.3358 37.7185 11.9427 38.1226 11.5594L36.7462 10.1084C36.3755 10.46 35.9752 10.812 35.6166 11.0955C35.2315 11.4 34.9748 11.5607 34.8711 11.604L35.642 13.4495ZM31.5776 9.73703C31.4136 10.6589 31.4484 11.4531 31.7136 12.1072C31.9907 12.7907 32.482 13.2271 33.0307 13.4648C33.5521 13.6906 34.0933 13.7257 34.5238 13.6967C34.9533 13.6678 35.3548 13.5694 35.642 13.4495L34.8711 11.604C34.8054 11.6315 34.6215 11.6856 34.3894 11.7013C34.1583 11.7168 33.9618 11.6885 33.8256 11.6295C33.7167 11.5824 33.6307 11.5128 33.567 11.3557C33.4914 11.1691 33.422 10.7883 33.5467 10.0873L31.5776 9.73703ZM31.9175 8.26584C31.8161 8.63748 31.7216 8.996 31.6574 9.26589C31.6261 9.3971 31.5973 9.5269 31.5794 9.63255C31.5718 9.67759 31.5586 9.76026 31.5556 9.84956C31.5545 9.88101 31.5503 9.99765 31.5836 10.137C31.5994 10.203 31.6434 10.3636 31.7714 10.527C31.9264 10.7249 32.2001 10.9122 32.5621 10.9122V8.91217C32.9214 8.91217 33.1928 9.09821 33.3458 9.29362C33.4719 9.4545 33.5143 9.61141 33.5289 9.67245C33.5599 9.80204 33.5549 9.9041 33.5545 9.91648C33.5527 9.96763 33.5466 9.99414 33.5512 9.96719C33.5577 9.92885 33.5739 9.85129 33.603 9.72899C33.6595 9.49187 33.747 9.15882 33.847 8.79225L31.9175 8.26584ZM32.9246 7.52964C32.9199 7.52964 32.915 7.52957 32.9098 7.52943L32.8547 9.52867C32.8776 9.5293 32.9009 9.52964 32.9246 9.52964V7.52964ZM33.3687 7.14722C33.3687 7.31771 33.2115 7.52964 32.9246 7.52964V9.52964C34.2328 9.52964 35.3687 8.5037 35.3687 7.14722H33.3687ZM32.9246 6.76481C33.2115 6.76481 33.3687 6.97673 33.3687 7.14722H35.3687C35.3687 5.79074 34.2328 4.76481 32.9246 4.76481V6.76481ZM32.4805 7.14722C32.4805 6.97673 32.6377 6.76481 32.9246 6.76481V4.76481C31.6163 4.76481 30.4805 5.79074 30.4805 7.14722H32.4805ZM32.5954 7.40281C32.5176 7.32854 32.4805 7.23856 32.4805 7.14722H30.4805C30.4805 7.82091 30.7679 8.42339 31.2146 8.84969L32.5954 7.40281ZM28.0405 12.1967C29.2481 12.1411 30.216 11.5796 30.9687 10.8952C31.7118 10.2195 32.2949 9.37935 32.7498 8.66142L31.0603 7.59108C30.6289 8.27203 30.1614 8.92604 29.6231 9.41552C29.0943 9.89637 28.5501 10.1712 27.9485 10.1988L28.0405 12.1967ZM27.9093 12.1989C27.9471 12.1982 27.9722 12.1978 27.9945 12.1978V10.1978C27.95 10.1978 27.9056 10.1987 27.8716 10.1993L27.9093 12.1989ZM22.9663 6.29936C23.9801 8.9766 24.8551 10.4599 25.6666 11.2695C26.0895 11.6915 26.5129 11.9488 26.9424 12.0827C27.3632 12.214 27.7236 12.2024 27.9093 12.1989L27.8716 10.1993C27.6914 10.2027 27.6206 10.1993 27.538 10.1735C27.464 10.1504 27.3115 10.0855 27.0792 9.85366C26.5801 9.35569 25.8266 8.20516 24.8367 5.59112L22.9663 6.29936ZM22.8754 5.81584L22.9103 6.07749L24.8928 5.81299L24.8579 5.55135L22.8754 5.81584Z" fill="white" mask="url(#path-5-outside-2_469_49)"/>
<path fill-rule="evenodd" clip-rule="evenodd" d="M13.9029 20.2746L19.9721 20.2122V20.2122H19.9736H22.7867V43.0578L19.9721 39.7942V28.9893H14.0127L18.5192 33.938L18.4721 38.0468L7.92383 26.1144L9.76337 24.3231L9.77273 24.3334L13.1005 21.0215L13.1022 21.0232L13.9029 20.2746ZM11.8897 26.1881H19.9721V23.0134H15.0949L15.0873 23.0057L11.8897 26.1881Z" fill="#C53242"/>
<path fill-rule="evenodd" clip-rule="evenodd" d="M27.1131 20.2124H24.2988V43.0581L27.1135 39.7944V31.2216L30.2732 32.1626L28.6799 33.9263V38.3395L35.0405 31.1158L35.3743 30.7428L29.2538 29.0049H36.8432L39.2313 26.4264L39.4205 26.2244L34.1311 20.9603L33.4997 20.2747L27.1135 20.2124H27.1131ZM35.2566 26.2159L27.1135 26.2002V23.0136H31.9918L31.9969 23.009L35.2566 26.2159Z" fill="#C53242"/>
</g>
<rect x="13" y="17" width="22" height="1" rx="0.5" fill="#19345F"/>
<defs>
<filter id="filter0_d_469_49" x="51.1055" y="13.7031" width="225.652" height="29.6562" filterUnits="userSpaceOnUse" color-interpolation-filters="sRGB">
<feFlood flood-opacity="0" result="BackgroundImageFix"/>
<feColorMatrix in="SourceAlpha" type="matrix" values="0 0 0 0 0 0 0 0 0 0 0 0 0 0 0 0 0 0 127 0" result="hardAlpha"/>
<feOffset dy="2"/>
<feGaussianBlur stdDeviation="2"/>
<feComposite in2="hardAlpha" operator="out"/>
<feColorMatrix type="matrix" values="0 0 0 0 0 0 0 0 0 0 0 0 0 0 0 0 0 0 0.15 0"/>
<feBlend mode="normal" in2="BackgroundImageFix" result="effect1_dropShadow_469_49"/>
<feBlend mode="normal" in="SourceGraphic" in2="effect1_dropShadow_469_49" result="shape"/>
</filter>
<filter id="filter1_d_469_49" x="0" y="0" width="47" height="54" filterUnits="userSpaceOnUse" color-interpolation-filters="sRGB">
<feFlood flood-opacity="0" result="BackgroundImageFix"/>
<feColorMatrix in="SourceAlpha" type="matrix" values="0 0 0 0 0 0 0 0 0 0 0 0 0 0 0 0 0 0 127 0" result="hardAlpha"/>
<feOffset dy="2"/>
<feGaussianBlur stdDeviation="2"/>
<feComposite in2="hardAlpha" operator="out"/>
<feColorMatrix type="matrix" values="0 0 0 0 0 0 0 0 0 0 0 0 0 0 0 0 0 0 0.15 0"/>
<feBlend mode="normal" in2="BackgroundImageFix" result="effect1_dropShadow_469_49"/>
<feBlend mode="normal" in="SourceGraphic" in2="effect1_dropShadow_469_49" result="shape"/>
</filter>
</defs>
</svg>
